<svg width="24" height="24" viewBox="0 0 24 24" fill="none" xmlns="http://www.w3.org/2000/svg">
<g clip-path="url(#clip0_365_3215)">
<path d="M18.2006 15.937C18.1024 15.9457 18.0035 15.9349 17.9095 15.9053C17.8155 15.8757 17.7282 15.8278 17.6527 15.7645C17.5772 15.7011 17.515 15.6235 17.4695 15.536C17.424 15.4486 17.3962 15.3531 17.3876 15.2549L16.7141 7.54872L7.27176 18.8017C7.1439 18.9541 6.96075 19.0494 6.76259 19.0667C6.56444 19.0841 6.36751 19.022 6.21514 18.8941C6.06276 18.7663 5.96742 18.5831 5.95008 18.385C5.93274 18.1868 5.99484 17.9899 6.12269 17.8375L15.565 6.58454L7.85901 7.2594C7.66074 7.27674 7.46371 7.21462 7.31125 7.08669C7.15879 6.95876 7.06339 6.7755 7.04604 6.57724C7.0287 6.37897 7.09082 6.18194 7.21875 6.02948C7.34668 5.87702 7.52994 5.78162 7.7282 5.76427L17.2378 4.93229C17.336 4.92364 17.4349 4.93444 17.5289 4.96405C17.6229 4.99366 17.7102 5.04151 17.7857 5.10487C17.8612 5.16822 17.9235 5.24584 17.969 5.33327C18.0144 5.42071 18.0422 5.51626 18.0508 5.61445L18.8828 15.1241C18.8914 15.2222 18.8806 15.3212 18.851 15.4152C18.8214 15.5092 18.7735 15.5964 18.7102 15.6719C18.6468 15.7474 18.5692 15.8097 18.4818 15.8552C18.3943 15.9007 18.2988 15.9285 18.2006 15.937Z" fill="black"/>
</g>
<defs>
<clipPath id="clip0_365_3215">
<rect width="24" height="24" fill="white"/>
</clipPath>
</defs>
</svg>
